<svg xmlns="http://www.w3.org/2000/svg" width="40" height="40" viewBox="0 0 40 40">
  <defs>
    <linearGradient id="a" x1="50%" x2="50%" y1="0%" y2="100%">
      <stop stop-color="#FAAD00" offset="0%"/>
      <stop stop-color="#E31D22" offset="100%"/>
    </linearGradient>
  </defs>
  <g fill="none" fill-rule="evenodd" transform="translate(0 1)">
    <path fill="#AB0B0D" d="M11,25.782084 C13.1116849,31.1782071 18.3634602,35 24.5078631,35 C32.515992,35 39.0078631,28.5081289 39.0078631,20.5 C39.0078631,12.4918711 32.515992,6 24.5078631,6 C21.7084663,6 19.0943543,6.79329865 16.8780702,8.16735291 C17.3408726,8.10410411 17.8134091,8.07142857 18.2935774,8.07142857 C24.0136695,8.07142857 28.6507203,12.7084794 28.6507203,18.4285714 C28.6507203,24.1486635 24.0136695,28.7857143 18.2935774,28.7857143 C15.4487744,28.7857143 12.8718533,27.6387756 11,25.782084 Z"/>
    <path fill="url(#a)" d="M33.3302691,6.5238645 C29.8470543,2.5263607 24.7185587,0 19,0 C8.50658975,0 0,8.50658975 0,19 C0,29.4934102 8.50658975,38 19,38 C24.7185587,38 29.8470543,35.4736393 33.3302691,31.4761355 C30.9473802,33.0703444 28.0822565,34 25,34 C16.7157288,34 10,27.2842712 10,19 C10,10.7157288 16.7157288,4 25,4 C28.0822565,4 30.9473802,4.92965555 33.3302691,6.5238645 Z"/>
  </g>
</svg>
