<svg xmlns="http://www.w3.org/2000/svg" width="28" height="28" viewBox="0 0 28 28">
  <path fill="#FFFFFF" fill-rule="evenodd" d="M29.4541433,28.0389573 L37.0018356,35.5866496 C37.3918673,35.9766813 37.3941779,36.6067371 37.000915,37 C36.6103748,37.3905402 35.9734647,37.3868208 35.5875645,37.0009206 L28.0398573,29.4532134 C26.1322763,31.0433539 23.6780847,32 21.0004473,32 C14.925068,32 10,27.0751322 10,21 C10,14.9248678 14.925068,10 21.0004473,10 C27.0758266,10 32.0008946,14.9248678 32.0008946,21 C32.0008946,23.6774506 31.0442653,26.1314775 29.4541433,28.0389573 Z M21.0004473,30 C25.9712122,30 30.0008133,25.9705627 30.0008133,21 C30.0008133,16.0294373 25.9712122,12 21.0004473,12 C16.0296824,12 12.0000813,16.0294373 12.0000813,21 C12.0000813,25.9705627 16.0296824,30 21.0004473,30 Z" transform="translate(-10 -10)"/>
</svg>
