<?xml version="1.0" encoding="utf-8"?>
<!-- Generator: Adobe Illustrator 16.0.1, SVG Export Plug-In . SVG Version: 6.00 Build 0)  -->
<!DOCTYPE svg PUBLIC "-//W3C//DTD SVG 1.1//EN" "http://www.w3.org/Graphics/SVG/1.1/DTD/svg11.dtd">
<svg version="1.1" id="Слой_1" xmlns="http://www.w3.org/2000/svg" xmlns:xlink="http://www.w3.org/1999/xlink" x="0px" y="0px"
	 width="7.68px" height="7.68px" viewBox="0 0 7.68 7.68" enable-background="new 0 0 7.68 7.68" xml:space="preserve">
<g>
	<g>
		<path fill-rule="evenodd" clip-rule="evenodd" fill="#FFFFFF" d="M0.24,7.887c0-2.541,0-5.061,0-7.614c2.538,0,5.075,0,7.646,0
			c0,2.505,0,5.042,0,7.614C5.382,7.887,2.844,7.887,0.24,7.887z M4.916,5.732c0.093-0.012,0.187-0.023,0.279-0.035
			c0-0.83,0-1.66,0-2.517c-0.712,0-1.367,0-2.022,0C3.132,3.285,3.091,3.39,3.05,3.494c0.373,0.187,0.746,0.373,1.058,0.529
			C3.678,4.604,3.245,5.19,2.811,5.777c0.127,0.108,0.253,0.217,0.38,0.325c0.469-0.527,0.938-1.055,1.49-1.674
			C4.784,5,4.85,5.366,4.916,5.732z"/>
		<path fill-rule="evenodd" clip-rule="evenodd" d="M4.916,5.732C4.85,5.366,4.784,5,4.681,4.429C4.129,5.048,3.66,5.575,3.19,6.103
			c-0.126-0.108-0.253-0.217-0.38-0.325C3.245,5.19,3.678,4.604,4.107,4.023C3.795,3.867,3.422,3.681,3.05,3.494
			C3.091,3.39,3.132,3.285,3.173,3.181c0.655,0,1.311,0,2.022,0c0,0.856,0,1.687,0,2.517C5.103,5.709,5.009,5.721,4.916,5.732z"/>
	</g>
</g>
</svg>
