<?xml version="1.0" encoding="utf-8"?>
<!-- Generator: Adobe Illustrator 16.0.1, SVG Export Plug-In . SVG Version: 6.00 Build 0)  -->
<!DOCTYPE svg PUBLIC "-//W3C//DTD SVG 1.1//EN" "http://www.w3.org/Graphics/SVG/1.1/DTD/svg11.dtd">
<svg version="1.1" id="Слой_1" xmlns="http://www.w3.org/2000/svg" xmlns:xlink="http://www.w3.org/1999/xlink" x="0px" y="0px"
	 width="7.68px" height="7.68px" viewBox="0 0 7.68 7.68" enable-background="new 0 0 7.68 7.68" xml:space="preserve">
<g>
	<g>
		<path fill-rule="evenodd" clip-rule="evenodd" d="M5.04,7.92c-0.561,0-1.12,0-1.68,0C3.042,7.762,2.716,7.618,2.406,7.445
			C0.862,6.584,0.14,4.813,0.647,3.157c0.52-1.697,2.064-2.796,3.801-2.662C6.266,0.635,7.272,1.786,7.92,3.36c0,0.56,0,1.12,0,1.68
			C7.408,6.448,6.448,7.408,5.04,7.92z M4.433,4.219c0.11,0.264,0.226,0.539,0.341,0.814c0.071-0.025,0.142-0.052,0.212-0.077
			c0-0.654,0-1.31,0-1.974c-0.646,0-1.232,0-1.819,0C3.156,3.051,3.146,3.12,3.135,3.188c0.274,0.095,0.549,0.189,0.896,0.31
			c-0.603,0.63-1.158,1.211-1.713,1.792c0.098,0.117,0.196,0.233,0.294,0.35C3.213,5.17,3.814,4.701,4.433,4.219z"/>
		<path fill-rule="evenodd" clip-rule="evenodd" fill="#FFFFFF" d="M7.92,3.36C7.272,1.786,6.266,0.635,4.448,0.495
			C2.711,0.361,1.167,1.46,0.647,3.157C0.14,4.813,0.862,6.584,2.406,7.445C2.716,7.618,3.042,7.762,3.36,7.92
			c-1.04,0-2.08,0-3.12,0c0-2.561,0-5.12,0-7.68c2.56,0,5.119,0,7.68,0C7.92,1.28,7.92,2.32,7.92,3.36z"/>
		<path fill-rule="evenodd" clip-rule="evenodd" fill="#FFFFFF" d="M5.04,7.92c1.408-0.512,2.368-1.472,2.88-2.88
			c0,0.96,0,1.92,0,2.88C6.96,7.92,6,7.92,5.04,7.92z"/>
		<path fill-rule="evenodd" clip-rule="evenodd" fill="#FFFFFF" d="M4.433,4.219c-0.618,0.482-1.22,0.951-1.821,1.42
			c-0.098-0.116-0.196-0.232-0.294-0.35c0.556-0.58,1.111-1.161,1.713-1.792c-0.348-0.12-0.622-0.215-0.896-0.31
			C3.146,3.12,3.156,3.051,3.167,2.982c0.587,0,1.173,0,1.819,0c0,0.665,0,1.32,0,1.974c-0.07,0.025-0.141,0.052-0.212,0.077
			C4.658,4.758,4.543,4.482,4.433,4.219z"/>
	</g>
</g>
</svg>
