<?xml version="1.0" encoding="utf-8"?>
<!-- Generator: Adobe Illustrator 16.0.1, SVG Export Plug-In . SVG Version: 6.00 Build 0)  -->
<!DOCTYPE svg PUBLIC "-//W3C//DTD SVG 1.1//EN" "http://www.w3.org/Graphics/SVG/1.1/DTD/svg11.dtd">
<svg version="1.1" id="Слой_1" xmlns="http://www.w3.org/2000/svg" xmlns:xlink="http://www.w3.org/1999/xlink" x="0px" y="0px"
	 width="16.56px" height="16.8px" viewBox="0 0 16.56 16.8" enable-background="new 0 0 16.56 16.8" xml:space="preserve">
<g>
	<g>
		<path fill-rule="evenodd" clip-rule="evenodd" d="M0.24,16.319c0-4.479,0-8.959,0-13.439C1.089,1.75,2.253,2.283,3.179,2.413
			C3.663,3.13,4.185,4.072,4.85,4.188c1.205,0.21,1.256-1.043,1.523-1.947c1.434,0,2.859,0,4.293,0
			c0.268,0.904,0.319,2.158,1.523,1.947c0.666-0.117,1.187-1.058,1.773-1.628c-0.074-0.125-0.147-0.25-0.221-0.375
			c1.032,0.161,2.215-0.47,3.058,0.694c0,4.48,0,8.96,0,13.439c-0.648,0.216-1.295,0.61-1.945,0.619
			c-4.223,0.056-8.447,0.056-12.669,0C1.534,16.93,0.888,16.535,0.24,16.319z M8.558,16.38c2.079,0,4.159-0.027,6.238,0.013
			c0.974,0.019,1.366-0.353,1.354-1.339c-0.036-2.759-0.029-5.52-0.003-8.278c0.009-0.893-0.293-1.326-1.245-1.32
			c-4.239,0.022-8.479,0.022-12.718,0C1.268,5.45,0.883,5.8,0.893,6.73c0.029,2.799,0.029,5.599,0,8.398
			c-0.01,0.943,0.403,1.273,1.306,1.261C4.317,16.359,6.438,16.38,8.558,16.38z"/>
		<path fill-rule="evenodd" clip-rule="evenodd" fill="#FFFFFF" d="M16.8,2.88c-0.843-1.164-2.025-0.533-3.058-0.694
			c0.073,0.125,0.146,0.25,0.221,0.375c-0.587,0.57-1.107,1.511-1.773,1.628c-1.204,0.21-1.256-1.043-1.523-1.947
			c-1.434,0-2.859,0-4.293,0C6.106,3.146,6.055,4.399,4.85,4.188C4.185,4.072,3.663,3.13,3.179,2.413
			C2.253,2.283,1.089,1.75,0.24,2.88c0-0.865,0-1.729,0-2.64c1.359,0,2.72,0,4.08,0C4.23,1.178,4.085,2.116,4.09,3.053
			c0.001,0.244,0.471,0.677,0.727,0.678c0.285,0.001,0.823-0.399,0.815-0.61C5.598,2.158,5.412,1.2,5.28,0.24c2.16,0,4.32,0,6.48,0
			c-0.132,0.959-0.318,1.917-0.353,2.881c-0.007,0.21,0.531,0.611,0.815,0.61c0.257-0.001,0.726-0.434,0.728-0.678
			c0.005-0.937-0.142-1.875-0.23-2.813c1.36,0,2.72,0,4.08,0C16.8,1.12,16.8,2,16.8,2.88z"/>
		<path fill-rule="evenodd" clip-rule="evenodd" d="M5.28,0.24C5.412,1.2,5.598,2.158,5.632,3.121c0.007,0.21-0.53,0.611-0.815,0.61
			C4.561,3.729,4.091,3.297,4.09,3.053C4.085,2.116,4.23,1.178,4.32,0.24C4.64,0.24,4.96,0.24,5.28,0.24z"/>
		<path fill-rule="evenodd" clip-rule="evenodd" d="M12.72,0.24c0.089,0.938,0.235,1.875,0.23,2.813
			c-0.002,0.244-0.471,0.677-0.728,0.678c-0.284,0.001-0.822-0.399-0.815-0.61C11.441,2.158,11.628,1.2,11.76,0.24
			C12.08,0.24,12.399,0.24,12.72,0.24z"/>
		<path fill-rule="evenodd" clip-rule="evenodd" fill="#FFFFFF" d="M0.24,16.319c0.648,0.216,1.294,0.61,1.945,0.619
			c4.222,0.056,8.446,0.056,12.669,0c0.65-0.009,1.297-0.403,1.945-0.619c0,0.318,0,0.636,0,0.955c-5.521,0.002-11.04,0.002-16.56,0
			C0.24,16.955,0.24,16.638,0.24,16.319z"/>
		<path fill-rule="evenodd" clip-rule="evenodd" fill="#FFFFFF" d="M8.558,16.38c-2.12,0-4.24-0.021-6.359,0.01
			c-0.903,0.013-1.315-0.317-1.306-1.261c0.029-2.8,0.029-5.6,0-8.398C0.883,5.8,1.268,5.45,2.183,5.455
			c4.239,0.022,8.479,0.023,12.718,0c0.952-0.005,1.254,0.428,1.245,1.32c-0.026,2.759-0.033,5.52,0.003,8.278
			c0.013,0.986-0.38,1.357-1.354,1.339C12.717,16.353,10.637,16.38,8.558,16.38z M10.739,14.188
			c-0.981-1.819-0.256-3.031,1.36-4.074c-1.049-0.192-1.936-0.116-2.455-0.516C9.1,9.178,8.906,8.301,8.357,7.23
			c-0.207,2.268-1.465,2.887-3.309,2.925c1.822,0.97,1.927,2.364,1.299,4.077C7.844,12.862,9.221,12.932,10.739,14.188z"/>
		<path fill-rule="evenodd" clip-rule="evenodd" d="M10.739,14.188c-1.519-1.256-2.895-1.325-4.392,0.045
			c0.628-1.713,0.523-3.107-1.299-4.077C6.893,10.117,8.15,9.498,8.357,7.23C8.906,8.301,9.1,9.178,9.645,9.598
			c0.52,0.399,1.406,0.323,2.455,0.516C10.483,11.156,9.758,12.368,10.739,14.188z"/>
	</g>
</g>
</svg>
