<?xml version="1.0" encoding="utf-8"?>
<!-- Generator: Adobe Illustrator 16.0.1, SVG Export Plug-In . SVG Version: 6.00 Build 0)  -->
<!DOCTYPE svg PUBLIC "-//W3C//DTD SVG 1.1//EN" "http://www.w3.org/Graphics/SVG/1.1/DTD/svg11.dtd">
<svg version="1.1" id="Слой_1" xmlns="http://www.w3.org/2000/svg" xmlns:xlink="http://www.w3.org/1999/xlink" x="0px" y="0px"
	 width="18px" height="11.28px" viewBox="0 0 18 11.28" enable-background="new 0 0 18 11.28" xml:space="preserve">
<g>
	<g>
		<path fill-rule="evenodd" clip-rule="evenodd" fill="#FFFFFF" d="M0.24,3.36c0-1.04,0-2.08,0-3.12c6,0,12,0,18,0
			c0,1.2,0,2.4,0,3.6c-0.271-0.567-0.495-1.165-0.824-1.697c-0.9-1.451-2.722-2.084-4.407-1.584c-1.387,0.412-2.392,1.75-2.418,3.22
			c-0.031,1.733,0.864,2.904,2.673,3.498c0.221,0.072,0.439,0.151,0.686,0.236c-0.213,1.13-0.888,1.836-1.851,2.225
			c-0.761,0.308-0.977,0.716-0.56,1.533c2.132-0.13,3.943-0.967,5.211-2.676c0.667-0.899,1.004-2.042,1.49-3.075
			c0,2.072,0,4.144,0,6.226c-6,0-12,0-18,0c0-2.404,0-4.795,0-7.186c0.65,1.554,1.7,2.656,3.461,2.881
			c-0.25,1.646-1.529,2.141-2.642,2.731c0.203,1.129,0.229,1.154,1.043,1.048c2.666-0.348,5.071-2.535,5.673-5.158
			c0.675-2.945-0.914-5.471-3.562-5.638C2.077,0.29,0.927,1.517,0.24,3.36z"/>
		<path fill-rule="evenodd" clip-rule="evenodd" d="M18.24,5.52c-0.486,1.033-0.823,2.175-1.49,3.075
			c-1.268,1.709-3.079,2.546-5.211,2.676c-0.417-0.817-0.201-1.226,0.56-1.533c0.963-0.389,1.638-1.095,1.851-2.225
			c-0.246-0.085-0.465-0.164-0.686-0.236c-1.809-0.594-2.704-1.765-2.673-3.498c0.026-1.47,1.031-2.808,2.418-3.22
			c1.686-0.5,3.507,0.133,4.407,1.584c0.329,0.532,0.553,1.129,0.824,1.697C18.24,4.4,18.24,4.96,18.24,5.52z"/>
		<path fill-rule="evenodd" clip-rule="evenodd" d="M0.24,3.36c0.687-1.843,1.836-3.07,3.974-2.935
			c2.647,0.167,4.237,2.693,3.562,5.638c-0.602,2.623-3.007,4.811-5.673,5.158c-0.814,0.106-0.841,0.081-1.043-1.048
			c1.113-0.591,2.392-1.085,2.642-2.731C1.94,7.216,0.891,6.114,0.24,4.56C0.24,4.16,0.24,3.76,0.24,3.36z"/>
	</g>
</g>
</svg>
