<?xml version="1.0" encoding="utf-8"?>
<!-- Generator: Adobe Illustrator 16.0.1, SVG Export Plug-In . SVG Version: 6.00 Build 0)  -->
<!DOCTYPE svg PUBLIC "-//W3C//DTD SVG 1.1//EN" "http://www.w3.org/Graphics/SVG/1.1/DTD/svg11.dtd">
<svg version="1.1" id="Слой_1" xmlns="http://www.w3.org/2000/svg" xmlns:xlink="http://www.w3.org/1999/xlink" x="0px" y="0px"
	 width="6px" height="6px" viewBox="0 0 6 6" enable-background="new 0 0 6 6" xml:space="preserve">
<g>
	<g>
		<path fill-rule="evenodd" clip-rule="evenodd" d="M0.24,4.08c0-1.28,0-2.56,0-3.84c1.28,0,2.56,0,3.84,0
			c1.245,1.163,2.087,2.422,0.899,4.169C5.427,4.804,5.833,5.162,6.24,5.52C6.359,6.12,6.12,6.359,5.52,6.24
			C5.162,5.833,4.804,5.427,4.465,5.042C2.484,5.864,1.921,5.729,0.24,4.08z M2.597,0.96C1.652,0.981,0.924,1.835,0.96,2.88
			c0.031,0.894,0.863,1.674,1.791,1.678c0.972,0.005,1.817-0.845,1.807-1.816C4.549,1.728,3.679,0.937,2.597,0.96z"/>
		<path fill-rule="evenodd" clip-rule="evenodd" fill="#FFFFFF" d="M6.24,5.52c-0.407-0.357-0.813-0.716-1.261-1.11
			C6.167,2.662,5.325,1.403,4.08,0.24c0.72,0,1.439,0,2.16,0C6.24,2,6.24,3.76,6.24,5.52z"/>
		<path fill-rule="evenodd" clip-rule="evenodd" fill="#FFFFFF" d="M0.24,4.08c1.681,1.649,2.244,1.784,4.225,0.962
			C4.804,5.427,5.162,5.833,5.52,6.24c-1.76,0-3.52,0-5.279,0C0.24,5.52,0.24,4.8,0.24,4.08z"/>
		<path fill-rule="evenodd" clip-rule="evenodd" fill="#FFFFFF" d="M2.597,0.96c1.082-0.023,1.952,0.767,1.961,1.782
			c0.01,0.971-0.835,1.821-1.807,1.816C1.824,4.555,0.992,3.774,0.96,2.88C0.924,1.835,1.652,0.981,2.597,0.96z"/>
	</g>
</g>
</svg>
